<svg
  xmlns="http://www.w3.org/2000/svg"
  width="896"
  height="288"
  viewBox="0 0 896 288"
  fill="none"
>
  <style>
    * {
      transform-origin: center;
      transform-box: fill-box;
    }

    .animate-ping {
      animation: ping 1s cubic-bezier(0, 0, 0.2, 1) infinite;
    }

    .animate-fade-in {
      animation: fade-in 0.64s cubic-bezier(0, 0, 0.2, 1) forwards;
    }

    .animate-fade-in-bottom {
      animation: fade-in-bottom 0.64s cubic-bezier(0, 0, 0.2, 1) forwards;
    }

    .animate-fade-in-right {
      animation: fade-in-right 0.64s cubic-bezier(0, 0, 0.2, 1) forwards;
    }

    .title {
      opacity: 0;
      animation-delay: 0.4s;
    }

    .description {
      opacity: 0;
      animation-delay: 0.7s;
    }

    .additional {
      opacity: 0;
      animation-delay: 1s;
    }

    .additional__indicator {
      opacity: 0;
      animation-delay: 1.6s;
    }

    @keyframes ping {
      75%,
      100% {
        transform: scale(2);
        opacity: 0;
      }
    }

    @keyframes fade-in {
      from {
        opacity: 0;
      }
      to {
        opacity: 1;
      }
    }

    @keyframes fade-in-bottom {
      from {
        opacity: 0;
        transform: translate3d(0, -20px, 0);
      }
      to {
        opacity: 1;
        transform: translate3d(0, 0, 0);
      }
    }

    @keyframes fade-in-right {
      from {
        opacity: 0;
        transform: translate3d(-20px, 0, 0);
      }
      to {
        opacity: 1;
        transform: translate3d(0, 0, 0);
      }
    }
  </style>
  <g clip-path="url(#clip0_1_2)">
    <!-- #region background  -->
    <rect width="896" height="288" fill="url(#paint0_linear_1_2)" />
    <mask
      id="mask0_1_2"
      style="mask-type: alpha"
      maskUnits="userSpaceOnUse"
      x="0"
      y="0"
      width="896"
      height="288"
    >
      <rect width="896" height="288" fill="url(#paint1_linear_1_2)" />
    </mask>
    <g mask="url(#mask0_1_2)">
      <path
        d="M32.5001 0L32.5001 288M64.5001 0L64.5001 288M96.5001 0L96.5001 288M128.5 0L128.5 288M160.5 0L160.5 288M192.5 0L192.5 288M224.5 0L224.5 288M256.5 0V288M288.5 0V288M320.5 0V288M352.5 0V288M384.5 0V288M416.5 0V288M448.5 0V288M480.5 0V288M512.5 0V288M544.5 0V288M576.5 0V288M608.5 0V288M640.5 0V288M672.5 0V288M704.5 0V288M736.5 0V288M768.5 0V288M800.5 0V288M832.5 0V288M864.5 0V288M0 31.5H896M0 63.5H896M0 95.5H896M0 127.5H896M0 159.5H896M0 191.5H896M0 223.5H896M0 255.5H896"
        stroke="white"
        stroke-opacity="0.04"
        stroke-dasharray="5 5"
      />
    </g>
    <!-- #endregion -->

    <!-- #region title -->
    <g class="animate-fade-in-bottom title">
      <path
        d="M211.224 151V103.32H221.144V151H211.224ZM232.991 122.84L231.839 103.32H240.159L239.071 122.84H232.991ZM250.208 151V116.056H259.168V124.568L258.208 123.16C258.72 120.472 259.957 118.488 261.92 117.208C263.882 115.928 266.229 115.288 268.96 115.288C271.861 115.288 274.4 116.035 276.576 117.528C278.794 118.979 280.181 120.941 280.736 123.416L277.984 123.672C279.136 120.813 280.778 118.701 282.912 117.336C285.045 115.971 287.541 115.288 290.4 115.288C292.917 115.288 295.136 115.843 297.056 116.952C299.018 118.061 300.554 119.619 301.664 121.624C302.773 123.587 303.328 125.891 303.328 128.536V151H293.728V130.584C293.728 129.219 293.472 128.045 292.96 127.064C292.49 126.083 291.808 125.315 290.912 124.76C290.016 124.205 288.928 123.928 287.648 123.928C286.41 123.928 285.322 124.205 284.384 124.76C283.488 125.315 282.784 126.083 282.272 127.064C281.802 128.045 281.568 129.219 281.568 130.584V151H271.968V130.584C271.968 129.219 271.712 128.045 271.2 127.064C270.73 126.083 270.048 125.315 269.152 124.76C268.256 124.205 267.168 123.928 265.888 123.928C264.65 123.928 263.562 124.205 262.624 124.76C261.728 125.315 261.024 126.083 260.512 127.064C260.042 128.045 259.808 129.219 259.808 130.584V151H250.208ZM442.599 151V103.32H452.519V127.192L449.767 126.232L468.839 103.32H481.255L462.375 126.104L462.951 119.064L481.639 151H470.055L458.407 130.84L452.519 137.944V151H442.599ZM498.377 151.768C495.561 151.768 493.15 151.171 491.145 149.976C489.182 148.739 487.689 147.032 486.665 144.856C485.641 142.68 485.129 140.141 485.129 137.24V116.056H494.729V136.472C494.729 137.795 494.985 138.968 495.497 139.992C496.051 140.973 496.819 141.741 497.801 142.296C498.782 142.851 499.891 143.128 501.128 143.128C502.409 143.128 503.518 142.851 504.457 142.296C505.438 141.741 506.185 140.973 506.697 139.992C507.251 138.968 507.529 137.795 507.529 136.472V116.056H517.129V151H508.169V144.088L508.681 145.624C507.87 147.715 506.547 149.272 504.713 150.296C502.921 151.277 500.809 151.768 498.377 151.768ZM537.841 151.768C534.001 151.768 530.652 150.872 527.793 149.08C524.977 147.245 523.057 144.792 522.033 141.72L529.073 138.392C529.969 140.269 531.185 141.741 532.721 142.808C534.257 143.875 535.964 144.408 537.841 144.408C539.206 144.408 540.252 144.131 540.977 143.576C541.702 143.021 542.065 142.253 542.065 141.272C542.065 140.76 541.937 140.333 541.681 139.992C541.425 139.608 541.041 139.267 540.529 138.968C540.017 138.669 539.377 138.413 538.609 138.2L532.657 136.536C529.798 135.725 527.601 134.424 526.065 132.632C524.529 130.797 523.761 128.643 523.761 126.168C523.761 123.992 524.316 122.093 525.425 120.472C526.534 118.851 528.092 117.592 530.097 116.696C532.102 115.757 534.406 115.288 537.009 115.288C540.422 115.288 543.409 116.099 545.969 117.72C548.572 119.299 550.406 121.539 551.473 124.44L544.369 127.768C543.857 126.317 542.918 125.165 541.553 124.312C540.23 123.416 538.716 122.968 537.009 122.968C535.772 122.968 534.79 123.224 534.065 123.736C533.382 124.248 533.041 124.952 533.041 125.848C533.041 126.317 533.169 126.744 533.425 127.128C533.681 127.512 534.086 127.853 534.641 128.152C535.238 128.451 535.964 128.728 536.817 128.984L542.385 130.648C545.286 131.501 547.505 132.803 549.041 134.552C550.577 136.259 551.345 138.371 551.345 140.888C551.345 143.064 550.769 144.963 549.617 146.584C548.508 148.205 546.95 149.485 544.945 150.424C542.94 151.32 540.572 151.768 537.841 151.768ZM557.083 151V116.056H566.043V122.968L565.531 121.432C566.341 119.341 567.643 117.805 569.435 116.824C571.269 115.8 573.403 115.288 575.835 115.288C578.48 115.288 580.784 115.843 582.747 116.952C584.752 118.061 586.309 119.619 587.419 121.624C588.528 123.587 589.083 125.891 589.083 128.536V151H579.483V130.584C579.483 129.219 579.205 128.045 578.651 127.064C578.139 126.083 577.392 125.315 576.411 124.76C575.472 124.205 574.363 123.928 573.083 123.928C571.845 123.928 570.736 124.205 569.755 124.76C568.773 125.315 568.005 126.083 567.451 127.064C566.939 128.045 566.683 129.219 566.683 130.584V151H557.083ZM606.211 151.768C603.694 151.768 601.518 151.363 599.683 150.552C597.848 149.741 596.44 148.589 595.459 147.096C594.478 145.56 593.987 143.747 593.987 141.656C593.987 139.693 594.435 137.965 595.331 136.472C596.227 134.936 597.592 133.656 599.427 132.632C601.304 131.608 603.63 130.883 606.403 130.456L617.091 128.728V135.768L608.131 137.368C606.766 137.624 605.72 138.072 604.995 138.712C604.27 139.309 603.907 140.184 603.907 141.336C603.907 142.403 604.312 143.235 605.123 143.832C605.934 144.429 606.936 144.728 608.131 144.728C609.71 144.728 611.096 144.387 612.291 143.704C613.486 143.021 614.403 142.104 615.043 140.952C615.726 139.757 616.067 138.456 616.067 137.048V127.96C616.067 126.637 615.534 125.528 614.467 124.632C613.443 123.736 612.035 123.288 610.243 123.288C608.536 123.288 607.022 123.757 605.699 124.696C604.419 125.635 603.48 126.872 602.883 128.408L595.203 124.76C595.886 122.797 596.974 121.112 598.467 119.704C599.96 118.296 601.752 117.208 603.843 116.44C605.934 115.672 608.216 115.288 610.691 115.288C613.635 115.288 616.238 115.821 618.499 116.888C620.76 117.955 622.51 119.448 623.747 121.368C625.027 123.245 625.667 125.443 625.667 127.96V151H616.707V145.368L618.883 144.984C617.859 146.52 616.728 147.8 615.491 148.824C614.254 149.805 612.867 150.531 611.331 151C609.795 151.512 608.088 151.768 606.211 151.768ZM649.156 151.768C645.742 151.768 642.692 150.957 640.004 149.336C637.316 147.715 635.182 145.517 633.604 142.744C632.068 139.971 631.299 136.899 631.299 133.528C631.299 130.115 632.089 127.043 633.668 124.312C635.246 121.539 637.38 119.341 640.068 117.72C642.756 116.099 645.764 115.288 649.092 115.288C651.652 115.288 653.913 115.779 655.876 116.76C657.881 117.699 659.46 119.043 660.612 120.792L659.14 122.712V102.552H668.74V151H659.78V144.6L660.676 146.584C659.481 148.291 657.86 149.592 655.812 150.488C653.764 151.341 651.545 151.768 649.156 151.768ZM650.308 143.128C652.057 143.128 653.593 142.723 654.916 141.912C656.238 141.101 657.262 139.971 657.988 138.52C658.756 137.069 659.14 135.405 659.14 133.528C659.14 131.651 658.756 129.987 657.988 128.536C657.262 127.085 656.238 125.955 654.916 125.144C653.593 124.333 652.057 123.928 650.308 123.928C648.558 123.928 646.98 124.355 645.572 125.208C644.206 126.019 643.14 127.149 642.372 128.6C641.604 130.008 641.22 131.651 641.22 133.528C641.22 135.405 641.604 137.069 642.372 138.52C643.14 139.971 644.206 141.101 645.572 141.912C646.98 142.723 648.558 143.128 650.308 143.128ZM675.77 151V116.056H685.37V151H675.77ZM675.77 112.92V103.32H685.37V112.92H675.77Z"
        fill="#CBD5E1"
      />
      <path
        d="M321.849 151V103.32H353.913V111.96H331.769V122.776H352.633V131.416H331.769V142.36H353.913V151H321.849ZM358.833 151V116.056H367.793V122.968L367.281 121.432C368.091 119.341 369.393 117.805 371.185 116.824C373.019 115.8 375.153 115.288 377.585 115.288C380.23 115.288 382.534 115.843 384.497 116.952C386.502 118.061 388.059 119.619 389.169 121.624C390.278 123.587 390.833 125.891 390.833 128.536V151H381.233V130.584C381.233 129.219 380.955 128.045 380.401 127.064C379.889 126.083 379.142 125.315 378.161 124.76C377.222 124.205 376.113 123.928 374.833 123.928C373.595 123.928 372.486 124.205 371.505 124.76C370.523 125.315 369.755 126.083 369.201 127.064C368.689 128.045 368.433 129.219 368.433 130.584V151H358.833ZM392.921 165.208C392.281 165.208 391.662 165.165 391.065 165.08C390.425 165.037 389.892 164.973 389.465 164.888V156.696C390.19 156.824 390.916 156.888 391.641 156.888C393.476 156.888 394.841 156.504 395.737 155.736C396.676 154.968 397.145 153.816 397.145 152.28V116.056H406.745V152.28C406.745 155.011 406.19 157.336 405.081 159.256C404.014 161.219 402.436 162.691 400.345 163.672C398.297 164.696 395.822 165.208 392.921 165.208ZM397.145 112.92V103.32H406.745V112.92H397.145ZM413.77 151V116.056H423.37V151H413.77ZM413.77 112.92V103.32H423.37V112.92H413.77Z"
        fill="#7733FF"
      />
    </g>
    <!-- #endregion -->

    <!-- #region description -->
    <g class="animate-fade-in-bottom description">
      <path
        d="M251.056 188V176.08H259.216V178.24H253.536V181.264H258.416V183.424H253.536V188H251.056ZM259.786 188V179.264H262.026V181.36L261.866 181.056C262.058 180.32 262.373 179.824 262.81 179.568C263.258 179.301 263.786 179.168 264.394 179.168H264.906V181.248H264.154C263.568 181.248 263.093 181.429 262.73 181.792C262.368 182.144 262.186 182.645 262.186 183.296V188H259.786ZM270.166 188.192C269.238 188.192 268.433 187.989 267.75 187.584C267.067 187.168 266.539 186.613 266.166 185.92C265.793 185.227 265.606 184.459 265.606 183.616C265.606 182.741 265.798 181.963 266.182 181.28C266.577 180.597 267.105 180.059 267.766 179.664C268.427 179.269 269.174 179.072 270.006 179.072C270.699 179.072 271.313 179.184 271.846 179.408C272.379 179.621 272.827 179.925 273.19 180.32C273.563 180.715 273.846 181.173 274.038 181.696C274.23 182.208 274.326 182.768 274.326 183.376C274.326 183.547 274.315 183.717 274.294 183.888C274.283 184.048 274.257 184.187 274.214 184.304H267.67V182.544H272.854L271.718 183.376C271.825 182.917 271.819 182.512 271.702 182.16C271.585 181.797 271.377 181.515 271.078 181.312C270.79 181.099 270.433 180.992 270.006 180.992C269.59 180.992 269.233 181.093 268.934 181.296C268.635 181.499 268.411 181.797 268.262 182.192C268.113 182.587 268.054 183.067 268.086 183.632C268.043 184.123 268.102 184.555 268.262 184.928C268.422 185.301 268.667 185.595 268.998 185.808C269.329 186.011 269.729 186.112 270.198 186.112C270.625 186.112 270.987 186.027 271.286 185.856C271.595 185.685 271.835 185.451 272.006 185.152L273.926 186.064C273.755 186.491 273.483 186.864 273.11 187.184C272.747 187.504 272.315 187.755 271.814 187.936C271.313 188.107 270.763 188.192 270.166 188.192ZM279.947 188.192C279.019 188.192 278.214 187.989 277.531 187.584C276.849 187.168 276.321 186.613 275.947 185.92C275.574 185.227 275.387 184.459 275.387 183.616C275.387 182.741 275.579 181.963 275.963 181.28C276.358 180.597 276.886 180.059 277.547 179.664C278.209 179.269 278.955 179.072 279.787 179.072C280.481 179.072 281.094 179.184 281.627 179.408C282.161 179.621 282.609 179.925 282.971 180.32C283.345 180.715 283.627 181.173 283.819 181.696C284.011 182.208 284.107 182.768 284.107 183.376C284.107 183.547 284.097 183.717 284.075 183.888C284.065 184.048 284.038 184.187 283.995 184.304H277.451V182.544H282.635L281.499 183.376C281.606 182.917 281.601 182.512 281.483 182.16C281.366 181.797 281.158 181.515 280.859 181.312C280.571 181.099 280.214 180.992 279.787 180.992C279.371 180.992 279.014 181.093 278.715 181.296C278.417 181.499 278.193 181.797 278.043 182.192C277.894 182.587 277.835 183.067 277.867 183.632C277.825 184.123 277.883 184.555 278.043 184.928C278.203 185.301 278.449 185.595 278.779 185.808C279.11 186.011 279.51 186.112 279.979 186.112C280.406 186.112 280.769 186.027 281.067 185.856C281.377 185.685 281.617 185.451 281.787 185.152L283.707 186.064C283.537 186.491 283.265 186.864 282.891 187.184C282.529 187.504 282.097 187.755 281.595 187.936C281.094 188.107 280.545 188.192 279.947 188.192ZM285.521 188V175.888H287.921V188H285.521ZM292.381 188.192C291.752 188.192 291.208 188.091 290.749 187.888C290.29 187.685 289.938 187.397 289.693 187.024C289.448 186.64 289.325 186.187 289.325 185.664C289.325 185.173 289.437 184.741 289.661 184.368C289.885 183.984 290.226 183.664 290.685 183.408C291.154 183.152 291.736 182.971 292.429 182.864L295.101 182.432V184.192L292.861 184.592C292.52 184.656 292.258 184.768 292.077 184.928C291.896 185.077 291.805 185.296 291.805 185.584C291.805 185.851 291.906 186.059 292.109 186.208C292.312 186.357 292.562 186.432 292.861 186.432C293.256 186.432 293.602 186.347 293.901 186.176C294.2 186.005 294.429 185.776 294.589 185.488C294.76 185.189 294.845 184.864 294.845 184.512V182.24C294.845 181.909 294.712 181.632 294.445 181.408C294.189 181.184 293.837 181.072 293.389 181.072C292.962 181.072 292.584 181.189 292.253 181.424C291.933 181.659 291.698 181.968 291.549 182.352L289.629 181.44C289.8 180.949 290.072 180.528 290.445 180.176C290.818 179.824 291.266 179.552 291.789 179.36C292.312 179.168 292.882 179.072 293.501 179.072C294.237 179.072 294.888 179.205 295.453 179.472C296.018 179.739 296.456 180.112 296.765 180.592C297.085 181.061 297.245 181.611 297.245 182.24V188H295.005V186.592L295.549 186.496C295.293 186.88 295.01 187.2 294.701 187.456C294.392 187.701 294.045 187.883 293.661 188C293.277 188.128 292.85 188.192 292.381 188.192ZM299.005 188V179.264H301.245V180.992L301.117 180.608C301.32 180.085 301.645 179.701 302.093 179.456C302.552 179.2 303.085 179.072 303.693 179.072C304.354 179.072 304.93 179.211 305.421 179.488C305.922 179.765 306.312 180.155 306.589 180.656C306.866 181.147 307.005 181.723 307.005 182.384V188H304.605V182.896C304.605 182.555 304.536 182.261 304.397 182.016C304.269 181.771 304.082 181.579 303.837 181.44C303.602 181.301 303.325 181.232 303.005 181.232C302.696 181.232 302.418 181.301 302.173 181.44C301.928 181.579 301.736 181.771 301.597 182.016C301.469 182.261 301.405 182.555 301.405 182.896V188H299.005ZM312.871 188.192C311.996 188.192 311.207 187.995 310.503 187.6C309.81 187.195 309.255 186.645 308.839 185.952C308.434 185.259 308.231 184.48 308.231 183.616C308.231 182.752 308.434 181.979 308.839 181.296C309.244 180.603 309.799 180.059 310.503 179.664C311.207 179.269 311.996 179.072 312.871 179.072C313.522 179.072 314.124 179.184 314.679 179.408C315.234 179.632 315.708 179.947 316.103 180.352C316.498 180.747 316.78 181.216 316.951 181.76L314.871 182.656C314.722 182.219 314.466 181.872 314.103 181.616C313.751 181.36 313.34 181.232 312.871 181.232C312.455 181.232 312.082 181.333 311.751 181.536C311.431 181.739 311.175 182.021 310.983 182.384C310.802 182.747 310.711 183.163 310.711 183.632C310.711 184.101 310.802 184.517 310.983 184.88C311.175 185.243 311.431 185.525 311.751 185.728C312.082 185.931 312.455 186.032 312.871 186.032C313.351 186.032 313.767 185.904 314.119 185.648C314.471 185.392 314.722 185.045 314.871 184.608L316.951 185.52C316.791 186.032 316.514 186.491 316.119 186.896C315.724 187.301 315.25 187.621 314.695 187.856C314.14 188.08 313.532 188.192 312.871 188.192ZM322.572 188.192C321.644 188.192 320.839 187.989 320.156 187.584C319.474 187.168 318.946 186.613 318.572 185.92C318.199 185.227 318.012 184.459 318.012 183.616C318.012 182.741 318.204 181.963 318.588 181.28C318.983 180.597 319.511 180.059 320.172 179.664C320.834 179.269 321.58 179.072 322.412 179.072C323.106 179.072 323.719 179.184 324.252 179.408C324.786 179.621 325.234 179.925 325.596 180.32C325.97 180.715 326.252 181.173 326.444 181.696C326.636 182.208 326.732 182.768 326.732 183.376C326.732 183.547 326.722 183.717 326.7 183.888C326.69 184.048 326.663 184.187 326.62 184.304H320.076V182.544H325.26L324.124 183.376C324.231 182.917 324.226 182.512 324.108 182.16C323.991 181.797 323.783 181.515 323.484 181.312C323.196 181.099 322.839 180.992 322.412 180.992C321.996 180.992 321.639 181.093 321.34 181.296C321.042 181.499 320.818 181.797 320.668 182.192C320.519 182.587 320.46 183.067 320.492 183.632C320.45 184.123 320.508 184.555 320.668 184.928C320.828 185.301 321.074 185.595 321.404 185.808C321.735 186.011 322.135 186.112 322.604 186.112C323.031 186.112 323.394 186.027 323.692 185.856C324.002 185.685 324.242 185.451 324.412 185.152L326.332 186.064C326.162 186.491 325.89 186.864 325.516 187.184C325.154 187.504 324.722 187.755 324.22 187.936C323.719 188.107 323.17 188.192 322.572 188.192ZM328.146 188V179.264H330.386V181.36L330.226 181.056C330.418 180.32 330.732 179.824 331.17 179.568C331.618 179.301 332.146 179.168 332.754 179.168H333.266V181.248H332.514C331.927 181.248 331.452 181.429 331.09 181.792C330.727 182.144 330.546 182.645 330.546 183.296V188H328.146ZM338.377 184.832V182.432H340.777V184.832H338.377ZM346.775 188V176.08H354.935V178.24H349.255V181.264H354.135V183.424H349.255V188H346.775ZM355.505 188V179.264H357.745V181.36L357.585 181.056C357.777 180.32 358.092 179.824 358.529 179.568C358.977 179.301 359.505 179.168 360.113 179.168H360.625V181.248H359.873C359.286 181.248 358.812 181.429 358.449 181.792C358.086 182.144 357.905 182.645 357.905 183.296V188H355.505ZM366.013 188.192C365.149 188.192 364.36 187.995 363.645 187.6C362.941 187.205 362.376 186.667 361.949 185.984C361.533 185.291 361.325 184.507 361.325 183.632C361.325 182.747 361.533 181.963 361.949 181.28C362.376 180.597 362.941 180.059 363.645 179.664C364.36 179.269 365.149 179.072 366.013 179.072C366.877 179.072 367.661 179.269 368.365 179.664C369.069 180.059 369.629 180.597 370.045 181.28C370.472 181.963 370.685 182.747 370.685 183.632C370.685 184.507 370.472 185.291 370.045 185.984C369.629 186.667 369.069 187.205 368.365 187.6C367.661 187.995 366.877 188.192 366.013 188.192ZM366.013 186.032C366.45 186.032 366.829 185.931 367.149 185.728C367.48 185.525 367.736 185.243 367.917 184.88C368.109 184.517 368.205 184.101 368.205 183.632C368.205 183.163 368.109 182.752 367.917 182.4C367.736 182.037 367.48 181.755 367.149 181.552C366.829 181.339 366.45 181.232 366.013 181.232C365.576 181.232 365.192 181.339 364.861 181.552C364.53 181.755 364.269 182.037 364.077 182.4C363.896 182.752 363.805 183.163 363.805 183.632C363.805 184.101 363.896 184.517 364.077 184.88C364.269 185.243 364.53 185.525 364.861 185.728C365.192 185.931 365.576 186.032 366.013 186.032ZM372.099 188V179.264H374.339V180.992L374.211 180.608C374.413 180.085 374.739 179.701 375.187 179.456C375.645 179.2 376.179 179.072 376.787 179.072C377.448 179.072 378.024 179.211 378.515 179.488C379.016 179.765 379.405 180.155 379.683 180.656C379.96 181.147 380.099 181.723 380.099 182.384V188H377.699V182.896C377.699 182.555 377.629 182.261 377.491 182.016C377.363 181.771 377.176 181.579 376.931 181.44C376.696 181.301 376.419 181.232 376.099 181.232C375.789 181.232 375.512 181.301 375.267 181.44C375.021 181.579 374.829 181.771 374.691 182.016C374.563 182.261 374.499 182.555 374.499 182.896V188H372.099ZM385.885 188.096C384.829 188.096 384.008 187.813 383.421 187.248C382.845 186.672 382.557 185.872 382.557 184.848V181.344H381.085V179.264H381.165C381.613 179.264 381.954 179.152 382.189 178.928C382.434 178.704 382.557 178.368 382.557 177.92V177.28H384.957V179.264H387.005V181.344H384.957V184.688C384.957 184.987 385.01 185.237 385.117 185.44C385.224 185.632 385.389 185.776 385.613 185.872C385.837 185.968 386.114 186.016 386.445 186.016C386.52 186.016 386.605 186.011 386.701 186C386.797 185.989 386.898 185.979 387.005 185.968V188C386.845 188.021 386.664 188.043 386.461 188.064C386.258 188.085 386.066 188.096 385.885 188.096ZM389.003 184.672V182.592H396.203V184.672H389.003ZM398.728 188V176.08H406.744V178.24H401.208V180.944H406.424V183.104H401.208V185.84H406.744V188H398.728ZM407.974 188V179.264H410.214V180.992L410.086 180.608C410.288 180.085 410.614 179.701 411.062 179.456C411.52 179.2 412.054 179.072 412.662 179.072C413.323 179.072 413.899 179.211 414.39 179.488C414.891 179.765 415.28 180.155 415.558 180.656C415.835 181.147 415.974 181.723 415.974 182.384V188H413.574V182.896C413.574 182.555 413.504 182.261 413.366 182.016C413.238 181.771 413.051 181.579 412.806 181.44C412.571 181.301 412.294 181.232 411.974 181.232C411.664 181.232 411.387 181.301 411.142 181.44C410.896 181.579 410.704 181.771 410.566 182.016C410.438 182.261 410.374 182.555 410.374 182.896V188H407.974ZM421.664 188.192C420.811 188.192 420.048 187.989 419.376 187.584C418.704 187.179 418.171 186.629 417.776 185.936C417.392 185.243 417.2 184.475 417.2 183.632C417.2 182.779 417.397 182.011 417.792 181.328C418.187 180.635 418.72 180.085 419.392 179.68C420.064 179.275 420.816 179.072 421.648 179.072C422.288 179.072 422.853 179.195 423.344 179.44C423.845 179.675 424.24 180.011 424.528 180.448L424.16 180.928V175.888H426.56V188H424.32V186.4L424.544 186.896C424.245 187.323 423.84 187.648 423.328 187.872C422.816 188.085 422.261 188.192 421.664 188.192ZM421.952 186.032C422.389 186.032 422.773 185.931 423.104 185.728C423.435 185.525 423.691 185.243 423.872 184.88C424.064 184.517 424.16 184.101 424.16 183.632C424.16 183.163 424.064 182.747 423.872 182.384C423.691 182.021 423.435 181.739 423.104 181.536C422.773 181.333 422.389 181.232 421.952 181.232C421.515 181.232 421.12 181.339 420.768 181.552C420.427 181.755 420.16 182.037 419.968 182.4C419.776 182.752 419.68 183.163 419.68 183.632C419.68 184.101 419.776 184.517 419.968 184.88C420.16 185.243 420.427 185.525 420.768 185.728C421.12 185.931 421.515 186.032 421.952 186.032ZM431.368 188V176.08H435.257C436.547 176.08 437.667 176.336 438.617 176.848C439.566 177.36 440.302 178.064 440.825 178.96C441.347 179.856 441.609 180.88 441.609 182.032C441.609 183.184 441.347 184.213 440.825 185.12C440.302 186.016 439.566 186.72 438.617 187.232C437.667 187.744 436.547 188 435.257 188H431.368ZM433.849 185.84H435.321C436.099 185.84 436.771 185.685 437.337 185.376C437.902 185.056 438.339 184.613 438.649 184.048C438.969 183.472 439.128 182.8 439.128 182.032C439.128 181.253 438.969 180.581 438.649 180.016C438.339 179.451 437.902 179.013 437.337 178.704C436.771 178.395 436.099 178.24 435.321 178.24H433.849V185.84ZM447.229 188.192C446.301 188.192 445.495 187.989 444.813 187.584C444.13 187.168 443.602 186.613 443.229 185.92C442.855 185.227 442.669 184.459 442.669 183.616C442.669 182.741 442.861 181.963 443.245 181.28C443.639 180.597 444.167 180.059 444.829 179.664C445.49 179.269 446.237 179.072 447.069 179.072C447.762 179.072 448.375 179.184 448.909 179.408C449.442 179.621 449.89 179.925 450.253 180.32C450.626 180.715 450.909 181.173 451.101 181.696C451.293 182.208 451.389 182.768 451.389 183.376C451.389 183.547 451.378 183.717 451.357 183.888C451.346 184.048 451.319 184.187 451.277 184.304H444.733V182.544H449.917L448.781 183.376C448.887 182.917 448.882 182.512 448.765 182.16C448.647 181.797 448.439 181.515 448.141 181.312C447.853 181.099 447.495 180.992 447.069 180.992C446.653 180.992 446.295 181.093 445.997 181.296C445.698 181.499 445.474 181.797 445.325 182.192C445.175 182.587 445.117 183.067 445.149 183.632C445.106 184.123 445.165 184.555 445.325 184.928C445.485 185.301 445.73 185.595 446.061 185.808C446.391 186.011 446.791 186.112 447.261 186.112C447.687 186.112 448.05 186.027 448.349 185.856C448.658 185.685 448.898 185.451 449.069 185.152L450.989 186.064C450.818 186.491 450.546 186.864 450.173 187.184C449.81 187.504 449.378 187.755 448.877 187.936C448.375 188.107 447.826 188.192 447.229 188.192ZM455.382 188L451.942 179.264H454.534L456.918 185.872H455.926L458.31 179.264H460.902L457.462 188H455.382ZM466.01 188.192C465.082 188.192 464.277 187.989 463.594 187.584C462.911 187.168 462.383 186.613 462.01 185.92C461.637 185.227 461.45 184.459 461.45 183.616C461.45 182.741 461.642 181.963 462.026 181.28C462.421 180.597 462.949 180.059 463.61 179.664C464.271 179.269 465.018 179.072 465.85 179.072C466.543 179.072 467.157 179.184 467.69 179.408C468.223 179.621 468.671 179.925 469.034 180.32C469.407 180.715 469.69 181.173 469.882 181.696C470.074 182.208 470.17 182.768 470.17 183.376C470.17 183.547 470.159 183.717 470.138 183.888C470.127 184.048 470.101 184.187 470.058 184.304H463.514V182.544H468.698L467.562 183.376C467.669 182.917 467.663 182.512 467.546 182.16C467.429 181.797 467.221 181.515 466.922 181.312C466.634 181.099 466.277 180.992 465.85 180.992C465.434 180.992 465.077 181.093 464.778 181.296C464.479 181.499 464.255 181.797 464.106 182.192C463.957 182.587 463.898 183.067 463.93 183.632C463.887 184.123 463.946 184.555 464.106 184.928C464.266 185.301 464.511 185.595 464.842 185.808C465.173 186.011 465.573 186.112 466.042 186.112C466.469 186.112 466.831 186.027 467.13 185.856C467.439 185.685 467.679 185.451 467.85 185.152L469.77 186.064C469.599 186.491 469.327 186.864 468.954 187.184C468.591 187.504 468.159 187.755 467.658 187.936C467.157 188.107 466.607 188.192 466.01 188.192ZM471.583 188V175.888H473.983V188H471.583ZM480.075 188.192C479.211 188.192 478.422 187.995 477.707 187.6C477.003 187.205 476.438 186.667 476.011 185.984C475.595 185.291 475.387 184.507 475.387 183.632C475.387 182.747 475.595 181.963 476.011 181.28C476.438 180.597 477.003 180.059 477.707 179.664C478.422 179.269 479.211 179.072 480.075 179.072C480.939 179.072 481.723 179.269 482.427 179.664C483.131 180.059 483.691 180.597 484.107 181.28C484.534 181.963 484.747 182.747 484.747 183.632C484.747 184.507 484.534 185.291 484.107 185.984C483.691 186.667 483.131 187.205 482.427 187.6C481.723 187.995 480.939 188.192 480.075 188.192ZM480.075 186.032C480.513 186.032 480.891 185.931 481.211 185.728C481.542 185.525 481.798 185.243 481.979 184.88C482.171 184.517 482.267 184.101 482.267 183.632C482.267 183.163 482.171 182.752 481.979 182.4C481.798 182.037 481.542 181.755 481.211 181.552C480.891 181.339 480.513 181.232 480.075 181.232C479.638 181.232 479.254 181.339 478.923 181.552C478.593 181.755 478.331 182.037 478.139 182.4C477.958 182.752 477.867 183.163 477.867 183.632C477.867 184.101 477.958 184.517 478.139 184.88C478.331 185.243 478.593 185.525 478.923 185.728C479.254 185.931 479.638 186.032 480.075 186.032ZM486.161 191.2V179.264H488.401V180.928L488.193 180.448C488.481 180.011 488.871 179.675 489.361 179.44C489.863 179.195 490.433 179.072 491.073 179.072C491.905 179.072 492.657 179.275 493.329 179.68C494.001 180.085 494.535 180.635 494.929 181.328C495.324 182.011 495.521 182.779 495.521 183.632C495.521 184.475 495.324 185.243 494.929 185.936C494.545 186.629 494.017 187.179 493.345 187.584C492.673 187.989 491.911 188.192 491.057 188.192C490.46 188.192 489.905 188.085 489.393 187.872C488.892 187.648 488.487 187.323 488.177 186.896L488.561 186.4V191.2H486.161ZM490.769 186.032C491.217 186.032 491.612 185.931 491.953 185.728C492.295 185.525 492.561 185.243 492.753 184.88C492.945 184.517 493.041 184.101 493.041 183.632C493.041 183.163 492.945 182.752 492.753 182.4C492.561 182.037 492.295 181.755 491.953 181.552C491.612 181.339 491.217 181.232 490.769 181.232C490.343 181.232 489.959 181.333 489.617 181.536C489.287 181.739 489.025 182.021 488.833 182.384C488.652 182.747 488.561 183.163 488.561 183.632C488.561 184.101 488.652 184.517 488.833 184.88C489.025 185.243 489.287 185.525 489.617 185.728C489.959 185.931 490.343 186.032 490.769 186.032ZM501.135 188.192C500.207 188.192 499.402 187.989 498.719 187.584C498.036 187.168 497.508 186.613 497.135 185.92C496.762 185.227 496.575 184.459 496.575 183.616C496.575 182.741 496.767 181.963 497.151 181.28C497.546 180.597 498.074 180.059 498.735 179.664C499.396 179.269 500.143 179.072 500.975 179.072C501.668 179.072 502.282 179.184 502.815 179.408C503.348 179.621 503.796 179.925 504.159 180.32C504.532 180.715 504.815 181.173 505.007 181.696C505.199 182.208 505.295 182.768 505.295 183.376C505.295 183.547 505.284 183.717 505.263 183.888C505.252 184.048 505.226 184.187 505.183 184.304H498.639V182.544H503.823L502.687 183.376C502.794 182.917 502.788 182.512 502.671 182.16C502.554 181.797 502.346 181.515 502.047 181.312C501.759 181.099 501.402 180.992 500.975 180.992C500.559 180.992 500.202 181.093 499.903 181.296C499.604 181.499 499.38 181.797 499.231 182.192C499.082 182.587 499.023 183.067 499.055 183.632C499.012 184.123 499.071 184.555 499.231 184.928C499.391 185.301 499.636 185.595 499.967 185.808C500.298 186.011 500.698 186.112 501.167 186.112C501.594 186.112 501.956 186.027 502.255 185.856C502.564 185.685 502.804 185.451 502.975 185.152L504.895 186.064C504.724 186.491 504.452 186.864 504.079 187.184C503.716 187.504 503.284 187.755 502.783 187.936C502.282 188.107 501.732 188.192 501.135 188.192ZM506.708 188V179.264H508.948V181.36L508.788 181.056C508.98 180.32 509.295 179.824 509.732 179.568C510.18 179.301 510.708 179.168 511.316 179.168H511.828V181.248H511.076C510.489 181.248 510.015 181.429 509.652 181.792C509.289 182.144 509.108 182.645 509.108 183.296V188H506.708ZM516.939 184.832V182.432H519.339V184.832H516.939ZM530.073 188.192C529.135 188.192 528.297 187.995 527.561 187.6C526.825 187.205 526.244 186.667 525.817 185.984C525.401 185.291 525.193 184.507 525.193 183.632V176.08H527.673V183.472C527.673 183.941 527.775 184.368 527.977 184.752C528.191 185.125 528.479 185.419 528.841 185.632C529.204 185.845 529.615 185.952 530.073 185.952C530.543 185.952 530.953 185.845 531.305 185.632C531.668 185.419 531.951 185.125 532.153 184.752C532.367 184.368 532.473 183.941 532.473 183.472V176.08H534.953V183.632C534.953 184.507 534.74 185.291 534.313 185.984C533.897 186.667 533.321 187.205 532.585 187.6C531.849 187.995 531.012 188.192 530.073 188.192ZM536.915 188V176.08H539.395V188H536.915ZM540.773 189.92L546.053 176.72H548.645L543.365 189.92H540.773ZM554.761 188.192C553.822 188.192 552.985 187.995 552.249 187.6C551.513 187.205 550.931 186.667 550.505 185.984C550.089 185.291 549.881 184.507 549.881 183.632V176.08H552.361V183.472C552.361 183.941 552.462 184.368 552.665 184.752C552.878 185.125 553.166 185.419 553.529 185.632C553.891 185.845 554.302 185.952 554.761 185.952C555.23 185.952 555.641 185.845 555.993 185.632C556.355 185.419 556.638 185.125 556.841 184.752C557.054 184.368 557.161 183.941 557.161 183.472V176.08H559.641V183.632C559.641 184.507 559.427 185.291 559.001 185.984C558.585 186.667 558.009 187.205 557.273 187.6C556.537 187.995 555.699 188.192 554.761 188.192ZM560.723 188L564.627 182.032L560.723 176.08H563.571L566.707 180.848H565.315L568.435 176.08H571.283L567.395 182.032L571.283 188H568.435L565.315 183.216L566.707 183.232L563.571 188H560.723ZM575.384 188V176.08H579.272C580.563 176.08 581.683 176.336 582.632 176.848C583.581 177.36 584.317 178.064 584.84 178.96C585.363 179.856 585.624 180.88 585.624 182.032C585.624 183.184 585.363 184.213 584.84 185.12C584.317 186.016 583.581 186.72 582.632 187.232C581.683 187.744 580.563 188 579.272 188H575.384ZM577.864 185.84H579.336C580.115 185.84 580.787 185.685 581.352 185.376C581.917 185.056 582.355 184.613 582.664 184.048C582.984 183.472 583.144 182.8 583.144 182.032C583.144 181.253 582.984 180.581 582.664 180.016C582.355 179.451 581.917 179.013 581.352 178.704C580.787 178.395 580.115 178.24 579.336 178.24H577.864V185.84ZM591.244 188.192C590.316 188.192 589.511 187.989 588.828 187.584C588.146 187.168 587.618 186.613 587.244 185.92C586.871 185.227 586.684 184.459 586.684 183.616C586.684 182.741 586.876 181.963 587.26 181.28C587.655 180.597 588.183 180.059 588.844 179.664C589.506 179.269 590.252 179.072 591.084 179.072C591.778 179.072 592.391 179.184 592.924 179.408C593.458 179.621 593.906 179.925 594.268 180.32C594.642 180.715 594.924 181.173 595.116 181.696C595.308 182.208 595.404 182.768 595.404 183.376C595.404 183.547 595.394 183.717 595.372 183.888C595.362 184.048 595.335 184.187 595.292 184.304H588.748V182.544H593.932L592.796 183.376C592.903 182.917 592.898 182.512 592.78 182.16C592.663 181.797 592.455 181.515 592.156 181.312C591.868 181.099 591.511 180.992 591.084 180.992C590.668 180.992 590.311 181.093 590.012 181.296C589.714 181.499 589.49 181.797 589.34 182.192C589.191 182.587 589.132 183.067 589.164 183.632C589.122 184.123 589.18 184.555 589.34 184.928C589.5 185.301 589.746 185.595 590.076 185.808C590.407 186.011 590.807 186.112 591.276 186.112C591.703 186.112 592.066 186.027 592.364 185.856C592.674 185.685 592.914 185.451 593.084 185.152L595.004 186.064C594.834 186.491 594.562 186.864 594.188 187.184C593.826 187.504 593.394 187.755 592.892 187.936C592.391 188.107 591.842 188.192 591.244 188.192ZM600.242 188.192C599.282 188.192 598.444 187.968 597.73 187.52C597.026 187.061 596.546 186.448 596.29 185.68L598.049 184.848C598.274 185.317 598.578 185.685 598.962 185.952C599.346 186.219 599.772 186.352 600.242 186.352C600.583 186.352 600.844 186.283 601.026 186.144C601.207 186.005 601.298 185.813 601.298 185.568C601.298 185.44 601.266 185.333 601.202 185.248C601.138 185.152 601.042 185.067 600.914 184.992C600.786 184.917 600.626 184.853 600.434 184.8L598.946 184.384C598.231 184.181 597.682 183.856 597.298 183.408C596.914 182.949 596.722 182.411 596.722 181.792C596.722 181.248 596.86 180.773 597.138 180.368C597.415 179.963 597.804 179.648 598.306 179.424C598.807 179.189 599.383 179.072 600.034 179.072C600.887 179.072 601.634 179.275 602.274 179.68C602.924 180.075 603.383 180.635 603.65 181.36L601.874 182.192C601.746 181.829 601.511 181.541 601.17 181.328C600.839 181.104 600.46 180.992 600.034 180.992C599.724 180.992 599.479 181.056 599.298 181.184C599.127 181.312 599.042 181.488 599.042 181.712C599.042 181.829 599.074 181.936 599.138 182.032C599.202 182.128 599.303 182.213 599.442 182.288C599.591 182.363 599.772 182.432 599.986 182.496L601.378 182.912C602.103 183.125 602.658 183.451 603.042 183.888C603.426 184.315 603.618 184.843 603.618 185.472C603.618 186.016 603.474 186.491 603.186 186.896C602.908 187.301 602.519 187.621 602.018 187.856C601.516 188.08 600.924 188.192 600.242 188.192ZM605.052 188V179.264H607.452V188H605.052ZM605.052 178.48V176.08H607.452V178.48H605.052ZM613.496 191.52C612.824 191.52 612.2 191.408 611.624 191.184C611.048 190.96 610.552 190.645 610.136 190.24C609.731 189.845 609.437 189.376 609.256 188.832L611.48 188.048C611.597 188.453 611.837 188.773 612.2 189.008C612.563 189.243 612.995 189.36 613.496 189.36C613.891 189.36 614.232 189.285 614.52 189.136C614.808 188.997 615.027 188.789 615.176 188.512C615.336 188.235 615.416 187.909 615.416 187.536V185.536L615.88 186.112C615.581 186.603 615.197 186.971 614.728 187.216C614.259 187.451 613.709 187.568 613.08 187.568C612.269 187.568 611.544 187.387 610.904 187.024C610.264 186.651 609.763 186.144 609.4 185.504C609.037 184.853 608.856 184.117 608.856 183.296C608.856 182.475 609.037 181.749 609.4 181.12C609.763 180.48 610.259 179.979 610.888 179.616C611.517 179.253 612.232 179.072 613.032 179.072C613.661 179.072 614.211 179.2 614.68 179.456C615.149 179.701 615.549 180.08 615.88 180.592L615.576 181.168V179.264H617.816V187.536C617.816 188.304 617.629 188.987 617.256 189.584C616.883 190.192 616.371 190.667 615.72 191.008C615.08 191.349 614.339 191.52 613.496 191.52ZM613.416 185.392C613.821 185.392 614.173 185.307 614.472 185.136C614.771 184.965 615 184.725 615.16 184.416C615.331 184.107 615.416 183.744 615.416 183.328C615.416 182.912 615.331 182.549 615.16 182.24C614.989 181.92 614.755 181.675 614.456 181.504C614.157 181.323 613.811 181.232 613.416 181.232C613.011 181.232 612.648 181.323 612.328 181.504C612.019 181.675 611.773 181.92 611.592 182.24C611.421 182.549 611.336 182.912 611.336 183.328C611.336 183.733 611.421 184.091 611.592 184.4C611.773 184.709 612.019 184.955 612.328 185.136C612.648 185.307 613.011 185.392 613.416 185.392ZM619.583 188V179.264H621.823V180.992L621.695 180.608C621.898 180.085 622.223 179.701 622.671 179.456C623.13 179.2 623.663 179.072 624.271 179.072C624.932 179.072 625.508 179.211 625.999 179.488C626.5 179.765 626.89 180.155 627.167 180.656C627.444 181.147 627.583 181.723 627.583 182.384V188H625.183V182.896C625.183 182.555 625.114 182.261 624.975 182.016C624.847 181.771 624.66 181.579 624.415 181.44C624.18 181.301 623.903 181.232 623.583 181.232C623.274 181.232 622.996 181.301 622.751 181.44C622.506 181.579 622.314 181.771 622.175 182.016C622.047 182.261 621.983 182.555 621.983 182.896V188H619.583ZM633.369 188.192C632.441 188.192 631.636 187.989 630.953 187.584C630.271 187.168 629.743 186.613 629.369 185.92C628.996 185.227 628.809 184.459 628.809 183.616C628.809 182.741 629.001 181.963 629.385 181.28C629.78 180.597 630.308 180.059 630.969 179.664C631.631 179.269 632.377 179.072 633.209 179.072C633.903 179.072 634.516 179.184 635.049 179.408C635.583 179.621 636.031 179.925 636.393 180.32C636.767 180.715 637.049 181.173 637.241 181.696C637.433 182.208 637.529 182.768 637.529 183.376C637.529 183.547 637.519 183.717 637.497 183.888C637.487 184.048 637.46 184.187 637.417 184.304H630.873V182.544H636.057L634.921 183.376C635.028 182.917 635.023 182.512 634.905 182.16C634.788 181.797 634.58 181.515 634.281 181.312C633.993 181.099 633.636 180.992 633.209 180.992C632.793 180.992 632.436 181.093 632.137 181.296C631.839 181.499 631.615 181.797 631.465 182.192C631.316 182.587 631.257 183.067 631.289 183.632C631.247 184.123 631.305 184.555 631.465 184.928C631.625 185.301 631.871 185.595 632.201 185.808C632.532 186.011 632.932 186.112 633.401 186.112C633.828 186.112 634.191 186.027 634.489 185.856C634.799 185.685 635.039 185.451 635.209 185.152L637.129 186.064C636.959 186.491 636.687 186.864 636.313 187.184C635.951 187.504 635.519 187.755 635.017 187.936C634.516 188.107 633.967 188.192 633.369 188.192ZM638.943 188V179.264H641.183V181.36L641.023 181.056C641.215 180.32 641.529 179.824 641.967 179.568C642.415 179.301 642.943 179.168 643.551 179.168H644.063V181.248H643.311C642.724 181.248 642.249 181.429 641.887 181.792C641.524 182.144 641.343 182.645 641.343 183.296V188H638.943Z"
        fill="#CBD5E1"
      />
    </g>
    <!-- #endregion -->

    <!-- #region additional  -->
    <g class="animate-fade-in-right additional">
      <g class="additional__indicator animate-fade-in">
        <circle cx="373" cy="215" r="4" fill="#FCFBFF" class="animate-ping" />
        <circle cx="373" cy="215" r="4" fill="#C4B5FD" />
      </g>
      <g class="additional__text">
        <path
          d="M386.132 219L389.156 210.06H391.628L394.652 219H392.624L392.024 217.176H388.748L388.148 219H386.132ZM389.264 215.556H391.508L390.14 211.332H390.644L389.264 215.556ZM397.501 219L394.441 210.06H396.481L398.785 217.236H398.377L400.681 210.06H402.721L399.661 219H397.501ZM402.503 219L405.527 210.06H407.999L411.023 219H408.995L408.395 217.176H405.119L404.519 219H402.503ZM405.635 215.556H407.879L406.511 211.332H407.015L405.635 215.556ZM411.952 219V210.06H413.812V219H411.952ZM415.397 219V210.06H417.257V217.38H421.037V219H415.397ZM421.3 219L424.324 210.06H426.796L429.82 219H427.792L427.192 217.176H423.916L423.316 219H421.3ZM424.432 215.556H426.676L425.308 211.332H425.812L424.432 215.556ZM430.749 219V210.06H434.529C435.145 210.06 435.673 210.164 436.113 210.372C436.553 210.58 436.889 210.88 437.121 211.272C437.353 211.656 437.469 212.124 437.469 212.676C437.469 213.068 437.361 213.444 437.145 213.804C436.929 214.156 436.573 214.452 436.077 214.692V213.78C436.549 213.964 436.913 214.184 437.169 214.44C437.425 214.696 437.601 214.976 437.697 215.28C437.793 215.576 437.841 215.888 437.841 216.216C437.841 217.096 437.549 217.78 436.965 218.268C436.381 218.756 435.569 219 434.529 219H430.749ZM432.609 217.38H434.745C435.121 217.38 435.421 217.272 435.645 217.056C435.869 216.84 435.981 216.56 435.981 216.216C435.981 215.864 435.869 215.58 435.645 215.364C435.421 215.148 435.121 215.04 434.745 215.04H432.609V217.38ZM432.609 213.42H434.661C434.949 213.42 435.177 213.34 435.345 213.18C435.521 213.012 435.609 212.792 435.609 212.52C435.609 212.248 435.521 212.032 435.345 211.872C435.177 211.704 434.949 211.62 434.661 211.62H432.609V213.42ZM439.034 219V210.06H440.894V217.38H444.674V219H439.034ZM445.597 219V210.06H451.609V211.68H447.457V213.708H451.369V215.328H447.457V217.38H451.609V219H445.597ZM454.819 219V210.06H460.939V211.68H456.679V213.948H460.339V215.568H456.679V219H454.819ZM466.221 219.144C465.549 219.144 464.925 219.028 464.349 218.796C463.773 218.564 463.269 218.24 462.837 217.824C462.413 217.4 462.081 216.908 461.841 216.348C461.601 215.788 461.481 215.18 461.481 214.524C461.481 213.868 461.597 213.26 461.829 212.7C462.069 212.14 462.401 211.652 462.825 211.236C463.257 210.82 463.761 210.496 464.337 210.264C464.913 210.032 465.541 209.916 466.221 209.916C466.901 209.916 467.529 210.032 468.105 210.264C468.681 210.496 469.181 210.82 469.605 211.236C470.037 211.652 470.369 212.14 470.601 212.7C470.841 213.26 470.961 213.868 470.961 214.524C470.961 215.18 470.841 215.788 470.601 216.348C470.361 216.908 470.025 217.4 469.593 217.824C469.169 218.24 468.669 218.564 468.093 218.796C467.517 219.028 466.893 219.144 466.221 219.144ZM466.221 217.464C466.629 217.464 467.005 217.392 467.349 217.248C467.701 217.104 468.009 216.904 468.273 216.648C468.537 216.384 468.741 216.072 468.885 215.712C469.029 215.352 469.101 214.956 469.101 214.524C469.101 214.092 469.029 213.7 468.885 213.348C468.741 212.988 468.537 212.676 468.273 212.412C468.009 212.148 467.701 211.948 467.349 211.812C467.005 211.668 466.629 211.596 466.221 211.596C465.813 211.596 465.433 211.668 465.081 211.812C464.737 211.948 464.433 212.148 464.169 212.412C463.905 212.676 463.701 212.988 463.557 213.348C463.413 213.7 463.341 214.092 463.341 214.524C463.341 214.956 463.413 215.352 463.557 215.712C463.701 216.072 463.905 216.384 464.169 216.648C464.433 216.904 464.737 217.104 465.081 217.248C465.433 217.392 465.813 217.464 466.221 217.464ZM472.28 219V210.06H475.7C476.316 210.06 476.86 210.168 477.332 210.384C477.812 210.6 478.188 210.92 478.46 211.344C478.732 211.768 478.868 212.292 478.868 212.916C478.868 213.524 478.728 214.044 478.448 214.476C478.168 214.9 477.792 215.22 477.32 215.436L479.36 219H477.272L475.064 215.052L476.264 215.76H474.14V219H472.28ZM474.14 214.14H475.712C475.976 214.14 476.204 214.088 476.396 213.984C476.588 213.88 476.736 213.736 476.84 213.552C476.952 213.368 477.008 213.156 477.008 212.916C477.008 212.668 476.952 212.452 476.84 212.268C476.736 212.084 476.588 211.94 476.396 211.836C476.204 211.732 475.976 211.68 475.712 211.68H474.14V214.14ZM482.44 219V210.06H484.3V213.924H487.78V210.06H489.64V219H487.78V215.544H484.3V219H482.44ZM491.229 219V210.06H493.09V219H491.229ZM494.675 219V210.06H498.095C498.711 210.06 499.255 210.168 499.727 210.384C500.207 210.6 500.583 210.92 500.855 211.344C501.127 211.768 501.263 212.292 501.263 212.916C501.263 213.524 501.123 214.044 500.843 214.476C500.563 214.9 500.187 215.22 499.715 215.436L501.755 219H499.667L497.459 215.052L498.659 215.76H496.535V219H494.675ZM496.535 214.14H498.107C498.371 214.14 498.599 214.088 498.791 213.984C498.983 213.88 499.131 213.736 499.235 213.552C499.347 213.368 499.403 213.156 499.403 212.916C499.403 212.668 499.347 212.452 499.235 212.268C499.131 212.084 498.983 211.94 498.791 211.836C498.599 211.732 498.371 211.68 498.107 211.68H496.535V214.14ZM502.679 219V210.06H508.691V211.68H504.539V213.708H508.451V215.328H504.539V217.38H508.691V219H502.679Z"
          fill="#C4B5FD"
        />
      </g>
    </g>
    <!-- #endregion -->
  </g>

  <!-- #region defs -->
  <defs>
    <linearGradient
      id="paint0_linear_1_2"
      x1="448"
      y1="0"
      x2="448"
      y2="288"
      gradientUnits="userSpaceOnUse"
    >
      <stop stop-color="#0F172A" />
      <stop offset="1" stop-color="#0F172A" stop-opacity="0" />
    </linearGradient>
    <linearGradient
      id="paint1_linear_1_2"
      x1="448"
      y1="0"
      x2="448"
      y2="288"
      gradientUnits="userSpaceOnUse"
    >
      <stop />
      <stop offset="1" stop-opacity="0" />
    </linearGradient>
    <clipPath id="clip0_1_2">
      <rect width="896" height="288" fill="white" />
    </clipPath>
  </defs>
  <!-- #endregion -->
</svg>
